<svg xmlns="http://www.w3.org/2000/svg" width="301" height="301" fill="none" viewBox="0 0 301 301"><g filter="url(#filter0_i_8128_8603)"><path fill="url(#paint0_linear_8128_8603)" d="M149.23 0c.666 16.513 14.216 29.708 30.87 29.804H195.365c20.084 0 36.51 15.664 37.729 35.441 20.659.253 37.328 17.079 37.328 37.798l.001 14.902-.001.182.001.182c.095 16.654 13.29 30.205 29.804 30.87v.05c-16.514.665-29.709 14.216-29.804 30.87l-.001.063v.224l.001.077-.001 14.901c0 20.085-15.664 36.511-35.442 37.729-.253 20.659-17.078 37.329-37.797 37.329h-15.266c-16.654.095-30.204 13.291-30.869 29.805h-.051l-.041-.772c-1.048-16.151-14.435-28.939-30.829-29.033h-15.266c-20.084 0-36.51-15.664-37.728-35.442-20.659-.253-37.328-17.079-37.328-37.798v-15.266C29.709 165.262 16.513 151.712 0 151.047v-.051c16.513-.665 29.71-14.216 29.805-30.87V104.86c0-20.084 15.663-36.51 35.441-37.728.254-20.659 17.08-37.327 37.798-37.327l14.902-.001h.364c16.654-.095 30.205-13.29 30.87-29.804h.05Z"/></g><path stroke="#fff" stroke-opacity=".25" stroke-width="2" d="M30.805 181.91c-.086-14.882-10.307-27.36-24.11-30.889 13.554-3.464 23.654-15.559 24.095-30.085l.015-.804V104.86l.01-.914c.467-19.134 15.54-34.649 34.493-35.816l.926-.057.012-.928c.247-20.112 16.627-36.34 36.798-36.34l14.896-.001h.375c14.883-.085 27.361-10.306 30.89-24.109 3.465 13.554 15.559 23.653 30.085 24.094l.804.015H195.365c19.553 0 35.545 15.25 36.731 34.503l.056.926.929.012c20.112.247 36.341 16.627 36.341 36.798l.001 14.902-.001.182.001.187c.085 14.883 10.305 27.361 24.107 30.89-13.799 3.528-24.017 16.002-24.107 30.879l-.001.063v.243l.001.052v.022l-.001 14.901c0 19.553-15.25 35.545-34.503 36.731l-.927.056-.012.929c-.246 20.112-16.626 36.342-36.797 36.342h-15.272c-14.882.085-27.36 10.306-30.889 24.108-3.528-13.803-16.007-24.023-30.889-24.108h-15.272c-19.552 0-35.544-15.25-36.73-34.503l-.057-.927-.928-.012-.94-.023c-19.676-.736-35.401-16.92-35.401-36.775V181.91Z"/><defs><linearGradient id="paint0_linear_8128_8603" x1="150.113" x2="150.113" y1="295.48" y2="21.823" gradientUnits="userSpaceOnUse"><stop offset=".25" stop-color="#FFCB79"/><stop offset="1" stop-color="#D5650F"/></linearGradient><filter id="filter0_i_8128_8603" width="300.227" height="312.227" x="0" y="0" color-interpolation-filters="sRGB" filterUnits="userSpaceOnUse"><feFlood flood-opacity="0" result="BackgroundImageFix"/><feBlend in="SourceGraphic" in2="BackgroundImageFix" mode="normal" result="shape"/><feColorMatrix in="SourceAlpha" result="hardAlpha" type="matrix" values="0 0 0 0 0 0 0 0 0 0 0 0 0 0 0 0 0 0 127 0"/><feOffset dy="12"/><feGaussianBlur stdDeviation="25"/><feComposite in2="hardAlpha" k2="-1" k3="1" operator="arithmetic"/><feColorMatrix type="matrix" values="0 0 0 0 0.913725 0 0 0 0 0.423529 0 0 0 0 0.184314 0 0 0 1 0"/><feBlend in2="shape" mode="normal" result="effect1_innerShadow_8128_8603"/></filter></defs></svg>