<svg xmlns="http://www.w3.org/2000/svg" width="131" height="71" fill="none" viewBox="0 0 131 71"><g clip-path="url(#clip0_9011_864)"><path fill="#666" d="M18.105 11.305c-.805 0-1.464.63-1.464 1.402v33.279c0 .771.659 1.403 1.465 1.403h36.457V11.305H18.105Z"/><path fill="#fff" d="m37.626 40.746-.017.026.003.017.011.007h.009l.012-.004.006-.01.002-.01-.007-.013-.02-.013Z"/><path fill="#666" d="M62.337 15.623h4.705v23.43h9.876v4.02H62.337v-27.45Zm19.69 27.45h4.733V15.625h-4.732v27.45Zm21.159-9.705 4.706-.004c0 3.194-.61 5.71-1.827 7.544-1.22 1.835-2.645 2.753-5.616 2.753-3.505 0-5.18-.87-6.548-2.612-1.354-1.752-2.031-4.645-2.031-8.677v-5.815c0-4.33.707-7.33 2.124-9 1.427-1.68 2.929-2.522 6.022-2.522 2.907 0 4.561.746 5.852 2.237 1.293 1.491 1.94 3.8 1.94 6.926l-4.827.003c0-1.69-.179-2.946-.538-3.767-.359-.822-1.039-1.233-2.041-1.233-2.511 0-3.766 1.906-3.766 5.717v8.896c0 2.049.321 3.508.965 4.376.656.87 1.602 1.305 2.839 1.305.94 0 1.632-.458 2.079-1.373.444-.925.667-2.51.667-4.754ZM16.641 56.293h.686v2.776h1.438v.575h-2.124v-3.351Zm2.744 3.352h.687v-3.352h-.687v3.352Zm1.559-3.352h2.146v.575h-1.452v.886h.838v.575h-.838v1.315h-.694v-3.351Zm2.725 0h2.342v.575h-1.656v.748h1.012v.498h-1.012v.955h1.656v.575h-2.342v-3.351Zm4.477 3.352h.687v-3.352h-.687v3.352Zm1.552-3.352h.735l1.419 2.249v-2.249h.686v3.35h-.688l-1.466-2.336v2.337h-.686v-3.351m4.083 2.41c.115.17.228.29.34.356.112.068.243.1.396.1.182 0 .324-.042.426-.129a.393.393 0 0 0 .154-.307.372.372 0 0 0-.121-.274c-.083-.078-.265-.153-.549-.227-.388-.097-.666-.217-.833-.358a.83.83 0 0 1-.313-.659c0-.282.104-.514.313-.698.207-.184.493-.276.855-.276.207 0 .39.033.552.1.151.058.29.144.41.253a1.4 1.4 0 0 1 .22.28l-.578.225a1.069 1.069 0 0 0-.297-.29.644.644 0 0 0-.336-.09.526.526 0 0 0-.365.122.386.386 0 0 0-.137.298.31.31 0 0 0 .114.24c.074.068.261.137.56.208.298.072.525.154.679.25a.918.918 0 0 1 .346.37c.077.15.114.307.114.467 0 .17-.048.339-.147.51a.975.975 0 0 1-.44.394 1.553 1.553 0 0 1-.67.137c-.24 0-.448-.038-.623-.115a1.318 1.318 0 0 1-.685-.659l.615-.228Zm2.617-2.41h.686v2.042c0 .254.063.446.186.572.123.127.29.19.502.19a.812.812 0 0 0 .36-.077.568.568 0 0 0 .253-.249.903.903 0 0 0 .095-.436v-2.042h.694v2.14c0 .409-.117.723-.35.943-.233.22-.573.33-1.022.33-.259 0-.5-.039-.724-.117a.96.96 0 0 1-.297-.166 1.18 1.18 0 0 1-.273-.37c-.074-.15-.11-.35-.11-.603v-2.157Zm3.58 0h.943c.507 0 .858.036 1.05.11a.895.895 0 0 1 .454.362c.108.168.162.361.162.579 0 .2-.049.366-.145.497-.098.13-.266.243-.507.336l.63 1.467h-.682L41.3 58.3h-.635v1.343h-.686v-3.351Zm.687.582v.907h.552a.817.817 0 0 0 .515-.165.367.367 0 0 0 .14-.307.382.382 0 0 0-.155-.31c-.105-.084-.27-.125-.5-.125h-.552Zm3.366-.582h.742l1.125 3.35h-.675l-.263-.781h-1.116l-.263.782h-.676l1.126-3.351Zm.37.907-.394 1.177h.79l-.395-1.177Zm1.99-.907h.734l1.419 2.249v-2.249h.686v3.35h-.688l-1.465-2.336v2.337h-.687v-3.351Zm6.295 2.39a1.45 1.45 0 0 1-.186.448c-.12.18-.276.32-.468.423a1.389 1.389 0 0 1-.665.153c-.268 0-.532-.066-.769-.193a1.284 1.284 0 0 1-.556-.578 2.03 2.03 0 0 1-.19-.907c0-.363.064-.684.194-.962a1.34 1.34 0 0 1 .563-.627c.236-.136.504-.208.776-.208.2 0 .396.042.588.126.191.085.35.204.475.359.087.107.157.25.209.428l-.636.174a.722.722 0 0 0-.246-.408.659.659 0 0 0-.422-.139c-.245 0-.437.113-.573.339-.136.225-.204.52-.204.884 0 .23.03.431.093.604a.802.802 0 0 0 .259.383c.102.08.227.123.356.123a.76.76 0 0 0 .516-.198.895.895 0 0 0 .25-.396l.636.171Zm.577-2.39h2.342v.575H53.95v.748h1.012v.498H53.95v.955h1.655v.575h-2.342v-3.351Zm7.066 2.39c-.049.188-.11.337-.185.448-.118.178-.28.323-.468.423a1.39 1.39 0 0 1-.666.153c-.268 0-.532-.066-.769-.193a1.27 1.27 0 0 1-.555-.578 2.016 2.016 0 0 1-.19-.907c0-.363.064-.684.193-.962a1.34 1.34 0 0 1 .563-.627c.236-.136.504-.208.777-.208.2 0 .395.042.587.126.192.085.35.204.476.359.087.107.156.25.208.428l-.636.174a.722.722 0 0 0-.245-.408.659.659 0 0 0-.422-.139c-.246 0-.436.113-.573.339-.137.225-.206.52-.206.884 0 .23.032.431.095.604a.805.805 0 0 0 .258.383c.11.082.229.123.358.123a.759.759 0 0 0 .514-.198.892.892 0 0 0 .25-.396l.636.171Zm1.85-2.452c.328 0 .593.053.795.157.256.131.466.337.602.591.138.256.207.593.207 1.01 0 .565-.139.993-.418 1.283-.278.29-.646.435-1.104.435-.463 0-.837-.148-1.121-.443-.285-.295-.428-.726-.428-1.293 0-.341.058-.647.173-.918.062-.15.158-.29.286-.42.128-.129.281-.23.45-.298.177-.07.367-.105.558-.104Zm.07.575c-.236 0-.43.09-.584.271-.154.18-.23.479-.23.897 0 .408.077.703.233.883a.76.76 0 0 0 .6.268.73.73 0 0 0 .577-.268c.153-.178.23-.471.23-.877 0-.455-.094-.775-.281-.96a.743.743 0 0 0-.545-.214Zm2.17-.513h.943c.506 0 .857.036 1.052.11a.9.9 0 0 1 .452.362c.109.168.162.361.162.579 0 .2-.049.366-.145.497-.097.13-.266.243-.507.336l.63 1.467h-.681L65.74 58.3h-.635v1.343h-.687v-3.351Zm.687.582v.907h.552a.818.818 0 0 0 .515-.165.368.368 0 0 0 .14-.307.38.38 0 0 0-.156-.31c-.104-.084-.27-.125-.5-.125h-.551Zm2.563-.582h1.106c.393 0 .688.03.882.092a.882.882 0 0 1 .649.88c0 .171-.034.329-.102.473a.844.844 0 0 1-.243.291 1.34 1.34 0 0 1-.328.19c-.186.074-.406.11-.659.11h-.612v1.316h-.694v-3.352Zm.693.575v.914h.564c.21 0 .385-.056.525-.168a.38.38 0 0 0 .14-.317c0-.127-.05-.23-.15-.31-.098-.079-.264-.119-.498-.119h-.58Zm3.85-.637c.328 0 .593.053.794.157.256.13.466.337.602.591.139.256.207.593.207 1.01 0 .565-.138.993-.417 1.283-.278.29-.647.435-1.105.435-.463 0-.836-.148-1.122-.443-.285-.295-.427-.726-.427-1.293 0-.341.057-.647.173-.918.063-.15.157-.29.287-.42.129-.13.278-.229.449-.298.178-.07.368-.106.559-.104Zm.07.575c-.236 0-.431.09-.585.271-.154.18-.23.479-.23.897 0 .408.078.703.234.883a.76.76 0 0 0 .599.268c.23 0 .423-.09.577-.268.154-.178.23-.471.23-.877 0-.455-.093-.775-.28-.96a.749.749 0 0 0-.546-.214Zm2.17-.513h.943c.506 0 .857.036 1.052.11a.901.901 0 0 1 .452.362c.108.168.163.361.163.579 0 .2-.05.366-.147.497-.097.13-.265.243-.506.336l.63 1.467h-.682l-.584-1.343h-.634v1.343h-.687v-3.351Zm.686.582v.907h.553c.201 0 .373-.055.515-.165a.368.368 0 0 0 .14-.307.382.382 0 0 0-.156-.31c-.104-.084-.27-.125-.499-.125h-.553Zm3.366-.582h.742l1.125 3.35h-.675l-.263-.781h-1.116l-.262.782h-.677l1.126-3.351Zm.371.907-.395 1.177h.791l-.396-1.177Zm1.342-.907h2.653v.575h-.983v2.776H81.2v-2.776h-.983v-.575Zm3.271 3.352h.687v-3.352h-.687v3.352Zm2.83-3.414c.329 0 .593.053.794.157.257.13.467.337.603.591.138.256.207.593.207 1.01 0 .565-.14.993-.418 1.283-.278.29-.646.435-1.104.435-.463 0-.837-.148-1.122-.443-.285-.295-.427-.726-.427-1.293 0-.341.057-.647.173-.918.067-.157.164-.3.286-.42.128-.129.28-.23.449-.298.178-.07.368-.105.559-.104Zm.07.575a.732.732 0 0 0-.584.271c-.154.18-.231.479-.231.897 0 .408.078.703.234.883a.762.762 0 0 0 .6.268c.231 0 .423-.09.577-.268.153-.178.23-.471.23-.877 0-.455-.093-.775-.28-.96a.745.745 0 0 0-.546-.214Zm2.156-.513h.735l1.419 2.249v-2.249h.687v3.35h-.689l-1.465-2.336v2.337h-.687v-3.351m6.39-.062c.329 0 .593.053.794.157.257.13.467.337.603.591.138.256.207.593.207 1.01 0 .565-.14.993-.418 1.283-.278.29-.646.435-1.105.435-.462 0-.835-.148-1.12-.443-.286-.295-.429-.726-.429-1.293 0-.341.059-.647.174-.918.067-.157.164-.3.286-.42.128-.129.28-.23.45-.298a1.48 1.48 0 0 1 .558-.104Zm.07.575c-.236 0-.43.09-.584.271-.153.18-.231.479-.231.897 0 .408.078.703.234.883a.76.76 0 0 0 .599.268c.232 0 .424-.09.578-.268.153-.178.23-.471.23-.877 0-.455-.094-.775-.28-.96a.746.746 0 0 0-.546-.214Zm2.163-.513h2.147v.575h-1.453v.886h.839v.575h-.839v1.315h-.694v-3.351Zm4.237 3.352h.687v-3.352h-.687v3.352Zm1.55-3.352h.735l1.419 2.249v-2.249h.688v3.35h-.689l-1.466-2.336v2.337h-.687v-3.351Zm3.658 0h1.268c.301 0 .571.07.808.212.237.14.419.34.542.597.124.258.186.537.186.837 0 .3-.053.57-.161.81a1.5 1.5 0 0 1-.412.567 1.404 1.404 0 0 1-.468.236 2 2 0 0 1-.606.092h-1.157v-3.351Zm.694.568v2.195h.475c.169 0 .32-.044.452-.13a.88.88 0 0 0 .305-.343c.104-.203.157-.429.155-.657 0-.324-.098-.582-.295-.775-.195-.194-.449-.29-.756-.29h-.336m2.816 2.784h.687v-3.352h-.687v3.352Zm2.355-3.352h.743l1.124 3.35h-.675l-.263-.781h-1.117l-.263.782h-.675l1.126-3.351Zm.372.907-.396 1.177h.79l-.394-1.177Z"/><path fill="#fff" d="M37.1 28.29c1.103-.606 1.875-1.743 1.875-2.403 0-.476-.772-.873-1.875-1.058v.185c.883.16 1.49.45 1.49.688 0 .211-.525.423-1.27.529h-.028c-.054 0-.138 0-.192.026v2.034Zm-1.296-3.566c.082-.264.192-.555.303-.898.358-.925-.138-2.008-.276-2.3-.165-.316-.552-1.24-.552-1.24-.192 1.426-.855 2.06-1.075 2.747-.111.37.055.792.22 1.136.111.185.248.396.36.581-.27.029-.537.073-.801.133v.158a8.03 8.03 0 0 1 .91-.132c.028.052.083.078.11.132.166.238.304.45.304.766 0 .476-.827.476-1.324.423v1.928a3.118 3.118 0 0 0 1.683.503c.501-.004.994-.13 1.434-.37v-2.034c-.525 0-1.242-.027-1.434-.476-.084-.16-.027-.475.083-.898.496 0 .965.052 1.351.131v-.185a9.633 9.633 0 0 0-1.296-.105Zm-1.821.159c-.993.184-1.655.58-1.655 1.004 0 .581.662 1.638 1.655 2.272V26.23c-.8-.106-1.324-.318-1.324-.529 0-.238.525-.503 1.324-.66v-.16Z"/><path fill="#fff" d="M28.269 20.913s.165-.634.165-.766c0-.159-.111-.634.413-.343.524.29.386.686.276.924-.11.237-.387 1.057-.524 1.348l-.58 1.532s-.054.133-.082.186c-.028.025-.248.818-.165 1.69l.11 1.004s.028.079.11 0c0 0 .11-.052.028-.555 0 0 0-1.03.028-1.242.027-.21.138-.872.192-.976.056-.134.083-.16.193-.45.111-.317.47-1.215.47-1.215s.496-.977.55-1.242c0 0 .222-.529.194-1.242 0 0-.055-.186.028-.265.11-.078.469 0 .606.106.138.106.387.344.359.688-.027.317-.192.898-.414 1.453 0 0-.193.423-.303.554-.083.106-.58 1.216-.58 1.268-.027.053-.055.133-.11.186 0 0-.248.713-.275.951-.056.264-.138.529-.193 1.083-.029.529.165 1.27.165 1.27s.028.13.11.13c.083 0 .083-.29.083-.316 0-.053-.027-.317-.056-.45-.027-.105 0-1.003 0-1.003s.083-.661.276-1.11c.083-.159.138-.423.248-.66.166-.371.331-.715.331-.715s.608-1.268.635-1.347c.027-.08.331-.846.358-1.242 0-.37.083-.634.083-.634s-.056-.29.331-.133c.359.159.606.476.635.767 0 0 .055.29-.056.317-.138.052-.193-.026-.276.052 0 0-.082.054-.082.186-.028.106-.11.449-.138.528 0 .106 0 .211-.083.529-.11.29-.441 1.241-.47 1.294 0 0-.22.634-.247.688 0 .052-.055.132-.083.184 0 .027-.304 1.056-.331 1.295-.028.237-.11.66-.082.924 0 .265.082.581.137.82 0 0 .028.08.138.052.083-.026-.083-.343-.028-.819.056-.476.138-1.137.194-1.294.027-.185.358-1.084.358-1.137.027-.052.331-.95.414-1.11.055-.158.331-1.003.358-1.162.028-.158.028-.581.47-.634.468.132.44.925.385 1.215 0 0-.082.82-.386 1.454-.275.607-.248.607-.248.634 0 .053.082.66.055.898 0 .239.027.476-.11.978-.166.501-.056.555-.028.634.056.106.332.476.414.687.055.212.137.635.165.714.028.053.359.37.497.607.11.211.468.767.496.82.028.079 1.159 1.453 1.463 1.982.303.528.579 1.004.55 1.48-.027.368-.192.765-.413 1.081-.118.145-.257.27-.413.371-.083.053-.276.132-.332.264l-.22.952h-4.33l.938-1.587s.304-.184-.358-.977c-.662-.766-1.793-2.695-1.793-2.695s-1.02-1.69-1.213-2.034c-.304-.45-.25-2.722-.25-3.408 0 0-.109-.819.36-1.903.469-1.083.883-2.114.883-2.114Zm14.729 0-.166-.766c0-.159.11-.634-.413-.343-.497.29-.359.686-.276.924.11.237.386 1.057.552 1.348l.579 1.532s.055.133.055.186c.028.025.248.818.166 1.69l-.111 1.004s-.028.079-.11 0c0 0-.11-.052-.028-.555 0 0 0-1.03-.028-1.242-.028-.21-.11-.872-.193-.976-.054-.134-.082-.16-.193-.45-.083-.317-.469-1.215-.469-1.215s-.497-.977-.552-1.242c0 0-.22-.529-.193-1.242 0 0 .084-.186-.027-.265-.11-.078-.441 0-.58.106-.137.106-.413.344-.386.688.056.317.193.898.415 1.453 0 0 .192.423.303.554.083.106.58 1.216.607 1.268 0 .053.055.133.082.186 0 0 .249.713.276.951.055.264.165.529.193 1.083.028.529-.165 1.27-.165 1.27s-.028.13-.11.13c-.083 0-.083-.29-.083-.316 0-.053.027-.317.055-.45.028-.105 0-1.003 0-1.003s-.083-.661-.276-1.11c-.055-.159-.137-.423-.248-.66-.138-.371-.331-.715-.331-.715s-.58-1.268-.607-1.347c-.027-.08-.358-.846-.387-1.242 0-.37-.081-.634-.081-.634s.081-.29-.304-.133c-.387.159-.635.476-.662.767 0 0-.055.29.083.317.11.052.192-.026.247.052 0 0 .084.054.11.186 0 .106.084.449.112.528.027.106 0 .211.082.529.11.29.441 1.241.469 1.294 0 0 .22.634.249.688.028.052.055.132.082.184.028.027.304 1.056.332 1.295.027.237.11.66.11.924a7.397 7.397 0 0 1-.138.82s-.055.08-.139.052c-.11-.026.056-.343 0-.819-.027-.476-.137-1.137-.192-1.294-.027-.185-.331-1.084-.36-1.137 0-.052-.33-.95-.412-1.11-.056-.158-.304-1.003-.36-1.162-.026-.158-.026-.581-.468-.634-.469.132-.442.925-.386 1.215 0 0 .083.82.386 1.454.304.607.248.607.248.634 0 .053-.083.66-.055.898 0 .239-.028.476.11.978.165.501.055.555.028.634-.027.106-.331.476-.414.687-.055.212-.11.635-.165.714-.027.053-.358.37-.496.607-.111.211-.47.767-.498.82-.027.079-1.158 1.453-1.461 1.982-.303.528-.552 1.004-.524 1.48 0 .368.165.765.413 1.081.11.134.222.266.387.371.11.053.276.132.331.264l.22.952h4.358l-.937-1.587s-.332-.184.331-.977c.662-.766 1.793-2.695 1.793-2.695s1.048-1.69 1.24-2.034c.276-.45.25-2.722.222-3.408 0 0 .11-.819-.359-1.903-.289-.707-.583-1.412-.883-2.114Z"/><path fill="#fff" d="M35.656 44.271c.414-.026.8-.026.8-.026 2.84 0 5.572-1.242 7.723-3.488 1.849-1.928 3.007-4.386 3.007-6.394V24.111c0-1.824-1.186-4.255-3.062-6.183-2.207-2.273-4.992-3.514-7.86-3.514h-.608v.316h.608c4.55 0 7.998 3.25 9.598 6.263.58 1.136.386 2.246.386 3.118v10.252c0 1.11.138 2.377-.524 3.593-.469.899-1.048 1.797-1.793 2.589-2.096 2.167-4.744 3.356-7.474 3.356 0 0-.387.027-.801.027v.343Zm0-29.857h-.717c-2.841 0-5.654 1.24-7.86 3.514-1.877 1.929-3.063 4.36-3.063 6.288v10.226c0 1.929 1.159 4.386 3.006 6.315 2.152 2.246 4.883 3.487 7.724 3.487 0 0 .442.027.855.027h.055v-.343c-.441 0-.91-.027-.91-.027-2.731 0-5.379-1.19-7.475-3.356a12.232 12.232 0 0 1-1.849-2.536c-.469-.978-.385-2.51-.385-3.646V24.111c0-1.084-.194-2.484.661-3.858 1.738-2.8 5.075-5.523 9.24-5.523h.718v-.316Z"/><path fill="#fff" d="M34.204 37.855c0 .106-.083.184-.194.184-.11 0-.193-.078-.193-.184 0-.08.084-.159.194-.159s.193.08.193.16Zm.193.502s-.469-.026-.883-.079v.317c.083 0 .166.027.221.027l-.028.58h-.193v.477l.138.026-.028.661.414.052.166-1.743h.164l.03-.318Zm-.883-.079c-.083 0-.166-.027-.248-.027-.193-.026-.414-.079-.635-.131l-.275-.45-.47-.106.277.45c-.11-.026-.166-.026-.166-.026l-.082.29s.055.026.138.026l-.056.264-.386-.079c.138-.105.22-.238.22-.396a.484.484 0 0 0-.495-.476v.37c.082 0 .11.052.11.106 0 .053-.028.079-.055.106h-.055v.581l.579.158-.25 1.163.443.08.386-1.772c.138.027.276.08.414.08l-.083.634s-.22-.052-.276.185c-.027.211.22.423.331.529.193.211.33-.133.33-.133v-.052l.304.026v-.475l-.248-.026.11-.608a.26.26 0 0 0 .138.026v-.317Zm-2.179 1.718v-.793c.056-.026.11-.026.11-.026l.194.237a.736.736 0 0 1-.221.185c-.028 0-.028.397-.028.397h-.055Zm0-2.378c-.303 0-.524.21-.524.475a.39.39 0 0 0 .11.291.517.517 0 0 0-.22.106c-.111.106-.387.344-.304.66.056.344.413.503.524.555h.055c.028 0 .028.212.028.212l.33.079v-.793a.565.565 0 0 1-.165.053c-.11.026-.22-.026-.303-.106-.138-.212.166-.502.413-.396l.056.026V38.2c-.056 0-.111-.053-.111-.106s.055-.105.11-.105v-.37m-.66.37.11-.292s-.827-.29-1.655-.687l-.138-.58-.386-.186.11.58c-.497-.263-.938-.528-1.214-.686v.792a.546.546 0 0 0 .138-.342c.11.051.248.132.358.21l-.385.608s-.028.053-.111.079v1.03l.91-1.505c.083.052.165.079.25.132l-.884 1.611.385.186.884-1.612.33.158c.166.53-.082.687-.082.687-.056-.132-.276-.158-.276-.158s-.331.053-.249.37c.056.318.359.528.717.211.304-.264.359-.74.359-.925.082.027.193.08.276.106l-.662 1.692.414.158.633-1.692a.9.9 0 0 1 .168.054Zm-3.173-1.85c-.165-.133-.276-.186-.276-.186l-.22.238s.11.053.248.16c0 .052.055.421-.413.342h-.166s-.304.53.028.978c.22.263.69.211.69.211l-.304.475.386.212.027-.053v-1.03a.463.463 0 0 1-.358-.053c-.22-.185-.082-.344-.082-.344.22 0 .358-.052.44-.158v-.792m17.322 1.48.303-.265-1.13-1.454c.137-.105.22-.158.22-.158l-.165-.159s-.138.106-.386.264v.397l.359.422-.304.238-.055-.052v.713h.165c.221 0 .166-.291.166-.291l.33-.238.497.582Zm-1.158-1.771c-.552.37-1.628 1.03-2.87 1.532v.344l.304.607c.028.159-.028.397-.276.45l-.028.026v.423c.221 0 .442-.053.608-.291l.247.45.387-.16-.8-1.718c.33-.132.635-.29.91-.422l.055.079s-.138.106-.303.211c-.166.106-.249.238-.221.449 0 .238.386.397.386.397s-.055.237.083.528c.248.45.965.264.965.264l-.082-.317-.166.027c-.359-.027-.359-.291-.359-.37.028-.08.11-.37.386-.344.277.026.166.37.166.37l.276.133c.082-.08.138-.186.138-.186.055-.633-.276-.687-.552-.739-.276-.08-.524.159-.524.159s-.138.078-.165.025c-.028-.052.027-.105.027-.105l.58-.396-.277-.45c.138-.052.25-.132.332-.185.11.107.386.53.386.53 0 .052-.083.078-.055.21.055.158.248.186.441.186v-.713l-.358-.477c.11-.053.22-.131.303-.185l.056.054v-.396Zm-2.87 1.532-.826.317c-1.628.502-3.42.66-4.304.687v.264h.194v.185c-.056.027-.11.027-.138.027h-.056v.396h.056c.055 0 .138 0 .193.026l.028.449a.54.54 0 0 1-.221.053h-.056v.396h.056c.083 0 .193-.026.276-.053l.027.344.442-.026-.138-1.824c.33-.026.69-.052 1.075-.105l.056.158s-.22.026-.414.053c-.193.053-.276.132-.359.344-.083.21.221.502.221.502s-.165.21-.11.528c.055.502.8.581.8.581l.056-.317-.194-.053c-.331-.158-.22-.396-.193-.449.055-.08.248-.318.496-.212.248.133 0 .397 0 .397l.221.238c.111-.053.194-.133.194-.133.303-.58 0-.74-.25-.898-.22-.132-.524 0-.524 0s-.164.026-.192-.026c0-.053.083-.106.083-.106l.662-.132-.083-.53c.083-.026.193-.026.276-.052l.496 1.77.441-.078-.468-1.77c.138-.027.248-.054.386-.08.055.158.248.687.248.687l-.166.106s-.165.185.083.318c.249.158.414.184.47.21.027 0 .192-.052.192-.29l.276-.106-.276-.396-.165.053-.221-.688c.166-.052.331-.08.469-.132.082.026.248.107.248.264-.028.264-.248.264-.248.264l-.11.132s.275.45.69.529c.11 0 .193.027.302.027v-.423c-.248.026-.33-.185-.33-.185s.165-.106.193-.344c0-.184-.11-.396-.137-.45a.855.855 0 0 1 .275-.104v-.343h-.001Zm-5.13 1.004c-.358.026-.58.026-.58.026l.029.264s.193 0 .551-.026v-.264Zm0 .476c-.414.026-.744.317-.744.66 0 .345.33.635.744.661v-.396c-.165-.027-.303-.133-.303-.264 0-.132.138-.238.303-.264v-.397Zm9.352-1.242.413-.238s.083-.052.138 0c.056.08-.028.106-.028.106s-.303.29-.386.29c-.083.027-.11 0-.137 0 0 0-.056-.105 0-.158Z"/><path fill="#666" d="M69.224 50.53H57.2l-.37-.43-.332-.339a3.218 3.218 0 0 0-.923-.627 2.08 2.08 0 0 0-.885-.212c-.66 0-1.116.234-1.353.693-.094.176-.131.317-.112.431l.024.185.087.18.088.12H48.18v.534h5.74v.73h-2.904l.278.208.138.105.297.288c.112.106.216.247.309.417a.765.765 0 0 1 .089.34c0 .13-.044.236-.135.32-.106.1-.257.15-.462.15-.372 0-.736-.166-1.08-.493a3.06 3.06 0 0 1-.677-.898l-.203-.42a1.154 1.154 0 0 1-.012-.052v-.24l-.733.363.072.262.22.4c.232.416.517.761.85 1.03.471.37.981.557 1.516.557.218 0 .417-.021.591-.064.375-.116.621-.294.74-.531.067-.123.101-.26.102-.4l-.048-.226-.12-.28-.202-.327h1.375v2.323h.818v-3.561h1.828v3.56h.818v-3.56h4.44v1.803a1.065 1.065 0 0 1-.472.267 1.264 1.264 0 0 1-.325.101l-.213.03h-.106c-.133 0-.276-.018-.426-.052-.34-.112-.51-.323-.51-.64 0-.082.016-.16.048-.232.106-.181.241-.294.405-.333.109-.034.236-.05.389-.05l.294.024.287.064.09.03.34.135-.215-.687-.058-.004-.187-.019-.173-.028-.232-.024h-.214a1.74 1.74 0 0 0-1.134.342c-.332.248-.5.536-.5.855 0 .183.051.343.151.477.095.126.24.25.433.366.34.206.756.31 1.235.31l.358-.023.37-.086.27-.12.096-.048v1.102h.817v-3.56h4.949v.797h-2.98l-.142.007-.121.026c-.225.093-.27.229-.27.328v.014l.005.013a.63.63 0 0 0 .16.25c.115.135.243.254.377.349l.417.296c.156.086.247.12.316.12l.162-.019.111-.063a1.92 1.92 0 0 0 .075-.121l.013-.12s0-.393.002-.544h1.875v2.227h.818v-3.561h.93v-.535h-.117Zm-13.555 0h-1.283l-.046-.044-.137-.174-.112-.202-.035-.15.008-.118a.759.759 0 0 1 .163-.26c.103-.1.266-.152.48-.152.236 0 .53.133.876.395.527.404.728.606.807.705h-.721Zm-11.927 0v.535h-.815v3.561h-.818v-1.105a2.94 2.94 0 0 1-1.26.28c-.605 0-1.125-.13-1.547-.384-.477-.289-.718-.662-.718-1.109v-.141l.231.057.087.02.128.02-.038-.006h.112c.256 0 .473-.047.641-.142a.41.41 0 0 0 .226-.394c0-.077-.044-.219-.244-.444l-.249-.212h-2.471v3.56h-.817v-3.56h-1.818v3.56h-.818v-2.502h-1.992c-.116 0-.222.014-.331.043a.39.39 0 0 0-.295.194l-.036.143c0 .317.147.638.44.951.315.338.586.554.809.643l.168.036.272.057-.598.413-.008.044-.059-.022-.21-.08-.321-.207-.455-.343-.211-.199-.171-.191c-.315-.37-.475-.741-.475-1.101 0-.252.1-.47.294-.644a.945.945 0 0 1 .365-.2c.148-.048.303-.072.459-.073h2.354v-.523h-4.8v.87c0 .388-.287.654-.85.792-.157.042-.318.061-.48.056h-.095l.56.541.31.258.583.423.39.26-.606.37-.05-.014c-.144-.04-.365-.18-.67-.426-.387-.303-.755-.63-1.102-.977l-.352-.35-.328-.362-.238-.273-.313-.375.671-.328.518.593c.09.101.277.152.557.152.239 0 .41-.032.506-.096a.417.417 0 0 0 .17-.28v-.834h-3.722v3.56h-.819v-3.56h-1.912v3.56h-.818v-1.883h-1.55v.592l-.025.101-.15.09-.152.019a.744.744 0 0 1-.344-.11 2.876 2.876 0 0 1-.514-.316l-.436-.35a.67.67 0 0 1-.172-.248l-.013-.043.07-.122.123-.083.134-.048.101-.017h.561v-.926c0-.038-.01-.088-.095-.141a.554.554 0 0 0-.297-.075s-.198.026-.187.023l-.167.057-.085.08-.03.1.01.064c.012.021.05.1.05.1l.016.036.194.235-.855-.012-.096-.111-.006-.025-.006-.029-.05-.118-.017-.116c-.019-.179.03-.433.372-.618.248-.134.542-.201.875-.201.55 0 .919.147 1.099.44a.65.65 0 0 1 .092.331v.906h1.55v-1.142H19.56v-.535h13.487l-.088-.12-.086-.18-.025-.184c-.018-.114.018-.255.112-.43.238-.46.694-.695 1.354-.695.287 0 .584.072.884.213.37.173.681.384.924.627l.33.34.373.429h6.918Zm-7.73 0c-.078-.099-.279-.3-.806-.705-.345-.262-.64-.394-.876-.394-.214 0-.376.05-.48.15a.755.755 0 0 0-.162.261l-.01.12.037.149s.112.202.11.201l.138.175.046.044h2.004Zm6.097.535h-1.62l.076.095.19.306.063.26v.013c0 .38-.243.67-.737.866l-.292.077-.225.039.027.05.034.044c.25.331.624.492 1.147.492.289 0 .556-.054.798-.162.14-.061.253-.123.327-.18l.213-.199v-1.7Zm47.696-.535H80.502l-.37-.43-.332-.339a3.215 3.215 0 0 0-.924-.627 2.076 2.076 0 0 0-.884-.212c-.66 0-1.116.234-1.353.693-.094.176-.131.317-.112.431l.025.185.085.18.089.12h-3.082v.534h3.602v1.708l-.015.035-1.545-.704.155-.047.245-.044.238-.013.28.03a.416.416 0 0 1 .154.047l.257.2-.169-.711-.165-.027-.045-.013a29.836 29.836 0 0 0-.313-.034l-.251-.015a2.024 2.024 0 0 0-1.188.335c-.347.232-.522.512-.522.833 0 .186.045.35.135.49.09.138.236.267.449.392.37.22.796.325 1.226.3h.321c.015 0 .355-.076.355-.076l.293-.102a2.3 2.3 0 0 0 .105-.067v1.044h.818v-3.56h1.806v3.56h.817v-3.56h2.246v1.114h-.373l-.136.024-.065.017c-.012.004-.169.09-.169.09l-.038.02.004.029-.042.121.004.025c.01.083.058.17.143.257.007.007.596.468.596.468.2.144.37.215.518.215l.181-.017.109-.054a.883.883 0 0 0 .08-.112l.017-.026-.012-.005v-.49h1.809v1.884h.817v-3.561h1.636v3.56h.818v-3.56h1.09v-.535h-.115Zm-10.892 0h-1.225l-.046-.044-.137-.174-.111-.202-.036-.15.009-.118a.749.749 0 0 1 .163-.26c.102-.1.265-.152.48-.152.235 0 .529.133.875.395.527.404.728.606.806.705h-.778Zm6.645.535v1.115H83.75v-1.115h1.808Zm-10.324 1.386.007-.018 1.553.736-.057.027-.276.096c-.003 0-.091.023-.114.027h-.164c-.124 0-.254-.018-.39-.052a.932.932 0 0 1-.333-.156c-.195-.117-.284-.245-.284-.407 0-.015 0-.031.003-.047l.008-.084.047-.122Zm38.996-1.92h-13.193l-.289-.191-.324-.224-.82-.457a7.026 7.026 0 0 0-.798-.375c-.729-.295-1.389-.444-1.962-.444-.256 0-.504.029-.735.085-.341.09-.62.238-.832.439-.2.19-.301.401-.301.629l.003.08v.126l.07.218.045.127h-.961v.535h.99v3.547h.817v-3.547h.962v-.014h4.051v.798h-2.981l-.141.007-.122.025c-.225.094-.268.23-.268.328v.015l.003.013c.02.073.073.155.162.25.114.135.243.252.377.349l.416.296c.156.086.248.12.316.12l.162-.02.111-.063a1.99 1.99 0 0 0 .075-.12l.014-.12v-.544h1.876v2.226h.818v-3.56h2.579v.987l-.525.006-.128.008-.127.009-.126.071h.012l-.054.15c0 .096.05.2.151.317.209.238.496.45.853.626.173.07.301.102.4.102l.198-.036.017-.009a.296.296 0 0 0 .142-.177l.005-.014v-2.04h1.536v3.56h.817v-3.56h2.541v1.114h-.374l-.136.024-.064.017c-.012.004-.168.09-.168.09l-.038.021.003.028-.042.122.003.024a.463.463 0 0 0 .143.257c.008.008.596.468.596.468.201.144.372.216.519.216l.18-.018.11-.054a.892.892 0 0 0 .08-.111l.017-.027-.012-.005v-.49h1.808v1.884h.818v-3.56h.842v-.536h-.117v.001Zm-17.453 0v.013h-.896a1.676 1.676 0 0 1-.016-.02l-.066-.128-.049-.138.004-.133a.717.717 0 0 1 .07-.317.86.86 0 0 1 .56-.375c.138-.041.281-.06.424-.058.208 0 .445.029.706.087.31.073.588.163.82.264l.674.302.26.122.386.23.236.15h-3.113Zm15.909.534v1.115h-1.809v-1.115h1.809Z"/></g><defs><clipPath id="clip0_9011_864"><path fill="#fff" d="M16.633 11.3h97.738v48.4H16.633z"/></clipPath></defs></svg>