<svg xmlns="http://www.w3.org/2000/svg" width="186" height="71" fill="none" viewBox="0 0 186 71"><g fill="#666" clip-path="url(#clip0_9011_897)"><path d="M83.188 26.418c.69.092 2.413.875 2.995 1.308 3.646 2.705 2.659 9.152-1.965 10.083l4.305 7.466h-5.71l-3.869-7.061-.718-.032v7.095h-5.242V26.418h10.204Zm-4.962 8.215h3.652c.776 0 1.29-1.437 1.225-2.147-.06-.653-.757-1.772-1.412-1.772h-3.465v3.921-.002ZM69.992 25.484v19.79H64.75v-2.053c-1.858 2.492-5.102 2.88-7.736 1.274-3.355-2.048-3.869-7.502-2.32-10.834 1.87-4.02 7.233-5 10.056-1.456v-6.72h5.242Zm-8.85 9.192c-2.91.601-2.636 6.48 1.034 6.258 3.681-.225 3.576-7.214-1.034-6.258ZM23.37 33.137h-5.616c-.133 0-.493-1.329-1.775-1.872-6.474-2.74-8.095 9.48-1.498 9.353 1.377-.026 2.934-.85 3.273-2.254h5.804c-.778 3.044-2.91 5.757-6.033 6.587C9.503 47.081 3.517 41.142 5.267 33.1c2.017-9.276 16.474-9.272 18.104.038ZM129.492 30.01c10.692-.372 11.101 15.056.695 15.454-10.713.408-11.022-15.094-.695-15.453Zm.169 4.473c-3.955.354-2.666 8.219 1.304 6.156 2.525-1.31 1.708-6.426-1.304-6.156ZM52.393 38.737H42.47c-.242 2.014 2.09 3.398 3.655 2.059.17-.146.457-.751.556-.751h5.523c-2.384 7.992-14.424 6.98-14.973-1.776-.715-11.407 16.9-10.723 15.16.468ZM47.15 36.31c-.068-2.987-4.443-2.91-4.68 0h4.68ZM180.071 38.735h-9.922c-.292 2.095 1.941 3.324 3.603 2.06.187-.143.463-.752.609-.752h5.336c-1.404 7.06-12.43 7.264-14.444.307-1.954-6.752 3.358-11.966 10.095-9.88 1.952.602 4.721 3.24 4.721 5.372v2.895l.002-.002Zm-5.242-2.426c-.146-2.92-4.534-2.92-4.68 0h4.68ZM105.186 38.733h-9.922c-.11 1.113.292 2.048 1.415 2.415 1.969.644 2.632-1.11 2.797-1.11h5.336c-1.475 7.203-12.733 7.238-14.51.003-1.547-6.288 3.045-11.296 9.466-9.814 2.25.519 5.42 3.164 5.42 5.611v2.895h-.002Zm-5.242-2.426c-.035-2.985-4.513-2.903-4.68 0h4.68ZM152.547 30.148l2.902 10.084 2.902-10.084h5.429l-5.081 15.097-6.253.04-5.329-15.137h5.43Z"/><path d="M120.158 35.191h-4.868c-.028 0 .025-.346-.104-.54-1.355-2.028-4.103-.396-2.809.739.66.577 4.12 1.036 5.415 1.696 3.374 1.72 3.055 5.95-.193 7.595-3.772 1.909-10.432.39-10.919-4.448h4.961c.15 0 .348.729.553.942 1.553 1.614 4.968-.412 1.886-1.508-1.718-.61-3.691-.534-5.248-1.675-2.615-1.916-1.808-5.712.902-7.128 3.852-2.013 9.907-.593 10.424 4.327ZM145.25 25.484h-5.242v19.79h5.242v-19.79ZM31.234 30.147v2.613c1.407-1.287 2.738-2.814 4.868-2.613v5.414c-1.21-.033-3.49-.013-4.28 1.053-.132.182-.588 1.315-.588 1.467v7.189h-5.242V30.428l.281-.28h4.961v-.001Z"/></g><defs><clipPath id="clip0_9011_897"><path fill="#fff" d="M4.96 25.484h175.105v20H4.96z"/></clipPath></defs></svg>