<svg xmlns="http://www.w3.org/2000/svg" width="186" height="71" fill="none" viewBox="0 0 186 71"><g fill="#666" clip-path="url(#clip0_9011_942)"><path d="m37.123 18.958 22.855-.04c1.75.262 3.325 1.871 3.483 3.633.619 6.881-.57 14.55.145 21.484-.339 3.117-1.965 4.317-4.979 4.512-6.509.422-13.467-.334-20.025 0-2.886-.193-4.598-1.5-4.833-4.485-.53-6.745.406-14.174.008-20.99.193-1.978 1.367-3.629 3.346-4.114Zm3.776 9.777h-2.374v6.686c0 .074.288.84.357.996.992 2.248 4.575 2.637 6.595 1.71 2.858-1.31 1.974-4.57 2.028-7.115.016-.693.33-1.454.022-2.199l-2.315.079c-.449 1.756.657 5.952-.835 7.121-.774.606-2.625.487-3.119-.446-.078-.148-.359-1.066-.359-1.165v-5.67.003Zm15.803 3.354c.397.236 1.79-.6 2.168-.897-3.202-5.422-11.423-1.037-8.556 4.82 1.607 3.282 6.95 3.544 8.556.087-.068-.106-.166-.166-.27-.234-.143-.094-1.564-.686-1.651-.67-.467.09-.862 1.37-2.322 1.251-3.64-.298-2.98-6.444.861-5.43.828.22 1.017.959 1.212 1.075l.002-.002ZM93.64 19.594v4.57c.61-.146.98-.644 1.6-.857 4.229-1.45 7.469 3.44 5.492 7.176-1.297 2.448-4.837 3.476-6.841 1.301-.49-.21 0 .815-.53.99-.386.128-1.79.123-2.095-.231v-12.95h2.373Zm4.52 6.32c-1.292-1.285-3.663-.785-4.357.869-.949 2.264.66 4.362 3.133 3.971 2.131-.336 2.605-3.466 1.225-4.84ZM80.072 19.93h2.374v9.395c0 .267-.576 1.483-.774 1.766-1.903 2.724-7.265 2.468-8.62-.684-.072-.168-.443-1.346-.443-1.42V19.93c.5.098 2.372-.254 2.527.278l.018 8.439c.197 2.109 3.06 2.634 4.33 1.106.157-.19.588-.934.588-1.106V19.93ZM112.295 32.54c-.131.422-2.825.624-2.206-.76-4.18 3.352-9.085-.997-7.371-5.751 1.082-3.005 5.08-3.916 7.371-1.697v-1.016h2.206v9.224Zm-6.725-2.345c.442.413 1.263.687 1.865.674 3.682-.081 3.599-5.794-.142-5.704-2.515.06-3.442 3.424-1.721 5.03h-.002ZM97.893 48.193c-.512-.047-1.165.189-1.526-.253v-9.056h1.528c.088.087-.206 1.254.252 1.014.924-1.41 2.822-1.703 4.276-.882.364.206 1.048 1.084 1.299 1.039 1.726-2.058 5.675-2.069 6.687.64.087.235.375 1.319.375 1.487v5.755c-.364.4-1.331.4-1.697 0v-6.262c0-.512-1.106-1.456-1.649-1.568-1.353-.279-3.099.825-3.099 2.246v5.584c-.338.395-1.187.395-1.525 0v-5.584c0-1.257-1.205-2.343-2.462-2.3-1.146.038-2.457 1.362-2.457 2.47v5.67h-.002ZM113.83 47.01v4.91h-1.525V38.888h1.528l-.003.922.427.097c2.017-2.461 6.175-1.252 7.238 1.573 1.468 3.9-1.779 8.127-5.914 6.579-.721-.27-1.089-.788-1.751-1.048Zm2.673-6.892c-3.723.52-3.375 6.244-.198 6.709 5.365.785 5.145-7.402.198-6.71ZM120.94 32.8v-5.33c0-.158-.309-1.071-.413-1.28-.583-1.189-2.324-1.36-3.235-.5-1.373 1.292-.501 5.08-.783 6.835-.173.525-1.701.186-2.181.278l-.148-9.213c.121-.498 1.914-.182 2.356-.267l.083 1.016c1.059-1.34 2.964-1.555 4.494-.929 3.195 1.304 1.719 6.422 2.013 9.117-.173.525-1.701.186-2.181.278l-.005-.005ZM84.314 38.032l-1.097.81c-.963-.705-1.472-1.481-2.67-1.87-3.752-1.216-7.064 1.493-6.725 5.359.339 3.866 4.735 5.506 7.93 3.554.37-.227 1.25-1.259 1.463-1.257l1.104.772c-2.776 4.595-10.663 3.552-11.998-1.741-1.425-5.648 3.87-10.283 9.227-8.024 1.056.444 2.297 1.362 2.766 2.397ZM132.311 47.944c-1.021.648-1.66.289-1.613-.934-1.239.985-2.388 1.544-4.026 1.31-1.905-.27-3.61-2.053-3.841-3.95-.586-4.818 4.111-7.567 7.867-4.466l.085-1.019h1.528v9.059Zm-7.063-2.004c.675.731 1.781.992 2.748.913 3.97-.316 3.781-6.9-.518-6.794-2.912.072-4.032 3.933-2.23 5.879v.002Z"/><path d="M89.882 38.598c6.574-.332 6.982 9.299.79 9.774-6.734.516-7.042-9.457-.79-9.774Zm-.184 1.524c-1.322.2-2.345 1.333-2.66 2.594-.868 3.493 3.759 5.887 5.897 2.67 1.602-2.412-.323-5.704-3.237-5.262v-.002ZM144.839 38.914l2.74 6.747c.132.1.361-.379.422-.507.877-1.842 1.321-4.218 2.199-6.098.179-.184 1.651-.406 1.622.092l-4.212 11.2c-.848 1.482-2.41 2.213-4.03 1.417l.104-1.36c1.976.678 2.75-.593 3.224-2.289l-3.909-8.975c-.047-.343.014-.22.249-.249.236-.03 1.492-.04 1.591.022ZM142.31 48.195l-1.247-.025-.254-.253c-.296-1.93.662-5.982-.954-7.342-1.07-.9-2.919-.574-3.623.62-.086.143-.534 1.258-.534 1.328v5.67c-.512-.047-1.165.188-1.526-.254v-9.056h1.528l.085.848c1.557-1.254 3.447-1.66 5.156-.41.451.33 1.371 1.494 1.371 2.017v6.855l-.002.002ZM84.307 23.324h2.206v.846c.697-.21.973-.877 1.79-1.003.361-.056 1.696-.094 1.865.146l-.095 2.044c-4.73-.805-3.388 4.306-3.417 7.252-.132.21-2.102.393-2.351-.06v-9.225h.002Z"/></g><defs><clipPath id="clip0_9011_942"><path fill="#fff" d="M33.617 18.902h118.216v33.174H33.617z"/></clipPath></defs></svg>