<svg xmlns="http://www.w3.org/2000/svg" width="186" height="71" fill="none" viewBox="0 0 186 71"><g clip-path="url(#clip0_9011_961)"><path fill="#666" d="M27.732 44.428v-4.68c0-.305.076-.47.368-.61 1.717-.852 2.569-2.721 2.124-4.603-.42-1.78-2.073-3.065-3.93-3.065-1.856 0-3.496 1.297-3.928 3.14-.433 1.781.445 3.676 2.123 4.515.33.165.42.356.42.687v9.168c0 .648 0 .648-.636.547-4.692-.763-8.202-3.243-10.44-7.427-4.514-8.494.712-19.022 10.147-20.574 7.54-1.246 14.713 3.752 16.175 11.254 1.538 7.884-3.739 15.462-11.66 16.747-.51.084-.763-.136-.763-.662v-4.438ZM88.569 34.612c.343.216.686.407 1.004.648 2.264 1.73 3.04 4.019 2.785 6.638-.369 3.84-3.052 6.409-7.439 7.248-1.017.19-2.034.292-3.064.292H71.313c-.432 0-.56-.089-.547-.508.013-8.977.013-17.955 0-26.932 0-.407.128-.509.547-.509 3.548.013 7.108-.025 10.656.013 2.365.025 4.616.483 6.498 1.907 3.586 2.696 3.738 8.011.356 10.949-.076.063-.153.14-.254.228m-11.445.878v8.227c0 .369.077.509.509.496 1.564-.026 3.128 0 4.692 0 2.111-.026 3.51-1.272 3.586-3.166.076-1.933-1.144-3.243-3.268-3.42-.7-.065-1.399-.04-2.098-.026-.318 0-.407-.09-.407-.382.013-1.475.013-2.95 0-4.425 0-.305.127-.369.42-.369.546 0 1.106.026 1.653-.012.839-.064 1.615-.293 2.072-1.005.674-1.043.7-2.162.14-3.242-.534-1.03-1.551-1.348-2.708-1.361-1.36-.013-2.721 0-4.082-.013-.407 0-.521.09-.521.483.025 2.747 0 5.48 0 8.228l.012-.013ZM60.397 39.797c-.801-.56-1.679-.967-2.594-1.348-1.526-.649-3.09-1.195-4.565-1.933-1.92-.966-3.637-2.136-4.603-4.056-1.476-2.925-.547-6.689 2.212-8.927 2.149-1.742 4.692-2.403 7.439-2.416 3.166.051 6.04.801 8.507 2.658.839.623.826.648.33 1.5-.737 1.285-1.488 2.556-2.2 3.853-.216.394-.33.343-.648.09-1.679-1.387-3.624-2.277-5.9-2.379-.954-.05-1.87.14-2.683.636-1.437.89-1.552 2.416-.255 3.459.61.496 1.348.839 2.086 1.144 1.818.776 3.725 1.373 5.48 2.29 1.857.953 3.472 2.148 4.336 4.017 1.628 3.523.382 8.889-5.162 10.758-3.891 1.322-7.68.788-11.317-.89a12.094 12.094 0 0 1-3.408-2.327c-.242-.23-.242-.395-.038-.649a179.122 179.122 0 0 0 3.039-3.916c.267-.356.407-.318.725-.051 1.869 1.615 4.03 2.683 6.625 2.797.699.038 1.386-.063 2.047-.318 1.615-.61 2.327-2.746.547-3.992ZM102.06 35.526V48.89c0 .445-.102.572-.598.56-1.895-.026-3.79-.026-5.684 0-.381 0-.458-.102-.458-.433V21.932c0-.33.09-.432.458-.432 1.907.013 3.828.025 5.735 0 .445 0 .534.114.534.509-.013 4.501 0 9.002 0 13.517"/><mask id="mask0_9011_961" width="63" height="31" x="110" y="20" maskUnits="userSpaceOnUse" style="mask-type:luminance"><path fill="#fff" d="M156.702 39.751a4.105 4.105 0 0 1-.089-.84c0-1.385.598-2.708 1.768-3.928 1.183-1.234 2.581-1.844 4.196-1.844.992 0 1.882.216 2.696.636.814.42 1.437.966 1.869 1.64l-10.3 5.035c-.051-.216-.114-.445-.165-.686l.025-.013Zm-2.098-7.172c-1.92 2.035-2.886 4.464-2.886 7.286 0 2.823 1.055 5.341 3.153 7.287 2.099 1.945 4.616 2.924 7.554 2.924 2.606 0 4.908-.775 6.917-2.314.661-.509 1.399-1.284 2.225-2.314l-3.713-2.162c-.496.636-.915 1.106-1.271 1.399-1.094.903-2.289 1.36-3.586 1.36-1.132 0-2.2-.368-3.217-1.119-.331-.241-.725-.61-1.196-1.119l14.255-7.031c-.852-2.277-2.2-4.082-4.056-5.417-1.857-1.336-3.955-2.01-6.32-2.01-3.192 0-5.811 1.081-7.871 3.243l.012-.013Zm-23.982-.763v17.625h5.392V29.21l-5.392 2.594v.012Zm.598-8.926c-.559.598-.839 1.322-.839 2.174 0 .852.305 1.514.903 2.073.597.56 1.36.84 2.263.84.903 0 1.602-.319 2.162-.942.559-.623.839-1.322.839-2.098 0-.826-.305-1.526-.928-2.098a3.16 3.16 0 0 0-2.2-.865c-.903 0-1.64.306-2.2.903v.013Zm-20.79-1.348v27.886h16.352l1.361-4.552h-11.788V21.542h-5.925Zm37.333-.636h-.038c-1.958 0-3.509.598-4.641 1.806-1.132 1.208-1.704 2.797-1.704 4.768v2.493h-1.933l-1.068 4.158h3.014v15.297h5.391V34.13h2.963l1.068-4.158h-4.031v-1.857c0-1.958.661-2.937 1.984-2.937.496 0 .992.127 1.488.381.05.026.139.09.241.178l1.157-4.12c-.496-.152-.903-.28-1.233-.356-.979-.241-1.857-.356-2.645-.356h-.013Z"/></mask><g mask="url(#mask0_9011_961)"><path fill="#666" d="M172.852 20.906H110.43v29.17h62.422v-29.17Z"/></g></g><defs><clipPath id="clip0_9011_961"><path fill="#fff" d="M12.18 20.914h160.677v29.17H12.18z"/></clipPath></defs></svg>