<svg xmlns="http://www.w3.org/2000/svg" width="186" height="71" fill="none" viewBox="0 0 186 71"><path fill="#666" d="M31.988 15.508c2.346 4.03 4.711 8.047 7.032 12.091-3.75 6.616-7.447 13.263-11.324 19.805-1.487 2.512-2.934 5.047-4.405 7.567-4.769.029-9.538.027-14.307.02.146-.327.29-.655.466-.966 7.509-12.841 15.046-25.666 22.538-38.517ZM135.762 25.418c2.637 4.914 5.272 9.827 7.905 14.743-.929.019-1.858-.028-2.785.004-.623-1.083-1.163-2.212-1.772-3.302-2.342-.07-4.686-.022-7.03-.027-.565 1.122-1.181 2.215-1.78 3.317-.916-.009-1.831.019-2.745.01 2.697-4.936 5.403-9.87 8.207-14.745Zm-2.509 9.316c1.597.022 3.196.019 4.796.032-.801-1.489-1.522-3.02-2.38-4.478a224.916 224.916 0 0 0-2.416 4.446ZM145.203 25.355c3.98 3.46 7.96 6.92 11.891 10.437.109-3.173-.013-6.346.083-9.52.852.018 1.703.031 2.554.046-.027 4.888-.014 9.777-.019 14.664-2.614-2.174-5.126-4.47-7.708-6.686-1.437-1.229-2.86-2.47-4.233-3.769-.033 3.214.016 6.43-.054 9.643-.846.003-1.692-.019-2.536-.012.006-4.935-.036-9.868.022-14.803ZM61.07 40.144c2.75-4.91 5.43-9.858 8.242-14.73 2.62 4.92 5.255 9.832 7.905 14.735-.943.022-1.884.02-2.826.002-.573-1.099-1.158-2.19-1.705-3.302-2.35-.03-4.7-.005-7.05-.005-.612 1.108-1.166 2.252-1.827 3.334-.914-.026-1.826-.007-2.739-.034Zm5.708-5.395c1.606-.007 3.214.015 4.822.01-.81-1.48-1.52-3.014-2.388-4.463-.817 1.483-1.625 2.967-2.434 4.453ZM100.196 26.681c1.343-.661 2.917-.748 4.371-.455 1.259.266 2.271 1.161 3.039 2.153-.682.345-1.359.695-2.029 1.063-.903-1.414-3.054-1.864-4.366-.762-.695.497-.64 1.723.146 2.102 1.76.97 3.9 1.178 5.461 2.52 1.59 1.348 1.53 4.044.056 5.459-1.583 1.604-4.089 1.953-6.193 1.352-1.761-.445-3.086-2.064-3.322-3.845.852-.186 1.711-.34 2.573-.474.103.835.419 1.754 1.206 2.173 1.246.669 3.052.501 3.911-.705.606-.821.427-2.082-.401-2.683-1.729-1.159-4.026-1.23-5.578-2.69-.819-.698-1.159-1.862-.88-2.896.222-1.054 1.083-1.834 2.006-2.312ZM78.036 26.373c.967-.126 1.943-.082 2.915-.072 1.039 1.547 2.076 3.093 3.117 4.638 1.095-1.526 2.16-3.075 3.239-4.611.997-.032 1.993-.05 2.99-.019-1.58 2.198-3.171 4.392-4.755 6.588 1.613 2.446 3.373 4.795 4.948 7.266-.95.005-1.899-.004-2.848-.012-1.208-1.738-2.408-3.483-3.617-5.221-1.248 1.745-2.508 3.48-3.741 5.236-.961.019-1.924.005-2.886.007 1.672-2.45 3.432-4.839 5.17-7.244-1.494-2.196-3.017-4.372-4.532-6.556ZM92.64 26.308c.857-.025 1.711-.024 2.568-.005.005 4.618.001 9.237.001 13.855-.87.002-1.738 0-2.607 0 .032-4.617.016-9.233.038-13.85ZM117.627 26.297c2.197.095 4.566-.303 6.59.773 1.973 1.056 2.429 4.189.609 5.607 1.146.452 2.255 1.303 2.556 2.557.482 1.538-.369 3.24-1.714 4.038-2.453 1.347-5.341.719-8.003.902-.083-4.625-.031-9.25-.038-13.877Zm2.549 1.993c.005 1.32.002 2.639-.007 3.957.955-.039 2.012.019 2.826-.57.831-.74.801-2.271-.116-2.93-.803-.507-1.793-.45-2.703-.457Zm.015 5.77c-.01 1.345-.005 2.692.021 4.037 1.281-.067 2.66.17 3.841-.465 1.048-.514 1.241-2.197.267-2.884-1.172-.91-2.746-.66-4.129-.688ZM162.682 26.3c.853-.006 1.705-.003 2.56 0 .003 1.823-.017 3.65.022 5.476 2.102-1.85 4.244-3.652 6.358-5.487 1.168.007 2.335.012 3.503.008a474.484 474.484 0 0 0-7.5 6.277c2.437 2.573 4.962 5.059 7.454 7.577-1.157-.012-2.316.08-3.469-.054a972.707 972.707 0 0 1-5.918-6.101c-.144.19-.286.379-.426.568-.051 1.867-.005 3.732-.037 5.599-.858-.005-1.716.017-2.573.011.007-4.623.019-9.248.026-13.873ZM31.992 40.079c4.786-.002 9.572-.036 14.358.044 2.85 4.969 5.79 9.883 8.615 14.865-4.786.024-9.57.005-14.356.002-2.848-4.986-5.823-9.895-8.617-14.911Z"/></svg>