<svg xmlns="http://www.w3.org/2000/svg" width="144" height="71" fill="none" viewBox="0 0 144 71"><g fill="#666" clip-path="url(#clip0_9011_875)"><path d="M74.334 41.3c-.029-.11.045-.127.094-.19 1.087-1.405 3.744-2.009 5.339-2.872 4.59-2.484 3.532-5.68 3.094-10.17-.016-.158.094-.59-.127-.537-.282 2.875-1.29 5.136-3.874 6.58-1.915 1.069-4.652 1.51-5.738 3.61-.162.312-.202 1.02-.608.504.058-.704 0-1.504.12-2.192.223-1.275.92-1.087 1.902-1.382 6.67-2.005 9.614-9.736 5.533-15.54-3.93-5.59-12.22-5.743-16.171-.089-3.925 5.617-1.277 13.752 5.383 15.615.743.208 1.831.172 2.104 1.054.131.426.248 2.119.167 2.544-.016.088-.074.193-.165.211-.281.056-.354-.537-.453-.726-1.12-2.148-4.158-2.706-6.118-3.862-2.361-1.392-3.197-3.558-3.495-6.2-.114.024-.118.124-.128.218-.224 2.036-.665 5.439 0 7.332.982 2.798 4.888 3.566 7.182 4.882.138.08 1.506.94 1.284 1.147-6.134-.883-11.244-5.69-12.55-11.735-2.296-10.64 6.745-20.2 17.49-18.375 8.99 1.527 14.55 10.605 12.019 19.373-1.629 5.642-6.478 9.898-12.284 10.8Z"/><path d="M60.692 53.994c-.146-.685-.375-1.416-.725-2.023-.968-1.671-3.167-2.292-4.771-3.187-3.449-1.922-5.419-4.533-5.623-8.587-.132-2.604.09-5.41.131-8.022.034-2.153.086-4.299.127-6.443.052-2.77.014-5.547.123-8.308 1.526-.03 3.572 1.03 4.197 2.466.051.117-.015.305.097.313 1.341-6.957 6.91-12.694 13.822-14.255 9.26-2.091 18.359 3.334 21.25 12.248.077.236.438 1.716.521 1.753.778-1.55 2.487-2.499 4.2-2.526.11 1.668.031 3.348.06 5.024.06 3.409.136 6.817.19 10.233.099 6.279 1.408 11.8-4.702 15.63-1.809 1.135-4.578 1.855-5.624 3.787-.31.574-.54 1.26-.662 1.896H82.23c.251-4.265 5.325-5.171 8.085-7.483 2.662-2.23 3.233-4.375 3.218-7.767-.014-3.094-.048-6.2-.063-9.285-.019-3.758.02-7.519.003-11.277-1.357.194-2.524 1.122-3.13 2.334-.434.87-.209 1.05-.155 1.93.534 8.725-4.235 16.164-12.41 19.17-1.068.393-2.688.645-3.329 1.66-.318.506-.607 1.298-.777 1.876-.847 2.89-.496 6-.474 8.969h-.632l-.194-3.507c.298-2.63-.158-7.26 2.593-8.716 1.513-.802 3.385-1.133 4.993-1.956 15.3-7.826 11.49-31.334-5.6-33.624-17.385-2.33-26.89 19.931-13.604 31.288 2.591 2.214 4.472 2.728 7.533 3.899 2.712 1.038 2.935 3.222 3.205 5.827.233 2.25.263 4.477 0 6.726h-.57c-.128-3.165.41-6.827-.818-9.823-.841-2.052-1.935-2.017-3.778-2.602-7.633-2.422-12.595-9.854-12.522-17.8.015-1.721.596-2.374-.541-3.939-.675-.928-1.593-1.534-2.74-1.712 0 1.674-.002 3.35-.004 5.024-.002 2.524.015 5.098.006 7.642-.011 3.075-.268 6.487-.069 9.538.202 3.074 1.914 5.385 4.43 7.003 2.608 1.678 6.777 2.872 6.879 6.606H60.69Z"/><path d="M73.328 34.468c-.041-.066-.01-.23.025-.307.129-.287 2.135-1.05 2.614-1.364 2.125-1.396 2.794-4.12 1.853-6.457-.039-.095.037-.17-.142-.139.003 1.215-.481 2.111-1.433 2.83-1.148.868-2.906 1.563-3.485 2.958-.04.097-.332 1.305-.514 1.096.035-.673-.047-1.388-.003-2.055.027-.425.018-.818.444-1.009.826-.372 1.352-.307 2.178-.98 4.122-3.355.389-10.029-4.594-8.068-3.59 1.413-3.95 6.474-.634 8.436.693.411 1.121.383 1.79.61.421.143.418.686.442 1.074.04.649-.034 1.339-.003 1.991-.399.034-.318-.436-.412-.693-.998-2.725-4.164-2.666-4.875-4.914a5.076 5.076 0 0 1-.209-1.34c-.103.014-.128.228-.157.316-.786 2.417-.335 4.97 1.947 6.327.452.268 2.447 1.052 2.557 1.424.177.595-.897.211-1.202.126-5.174-1.438-7.525-7.769-5.008-12.426 3.38-6.258 12.46-5.86 15.265.653 1.966 4.565-.313 10.346-5.19 11.76-.205.058-1.135.34-1.255.149v.002Z"/><path d="M74.997 22.688c2.097 2.113 1.231 5.707-1.495 6.767-.225.087-.852.353-.978.095-.285-.586.48-2.255.622-2.915.346-1.606-.594-2.848-1.127-4.285-.137-.027-.083.057-.11.139-.619 1.843-1.406 2.302-.913 4.485.166.737.685 1.56.613 2.292-.012.119-.047.405-.206.399-1.297-.046-2.688-1.306-3.17-2.454-1.79-4.254 3.553-7.762 6.765-4.523ZM83.215 57.847c1.248.102 2.274.567 2.181 1.993-.07 1.075-.685 1.408-1.556 1.792-.06.026-.111-.037-.088.1.748.858 1.315 2.072 2.089 2.886.286.3.514.391.936.436l.006.373h-2.557c-.434-.612-.769-1.289-1.18-1.915-.149-.225-.965-1.436-1.108-1.483-.086-.028-.182-.012-.27-.013v2.369c0 .451.584.609.939.671l.008.37h-3.537l.007-.372c.343-.086.866-.042.937-.484-.117-1.808.17-3.84.007-5.62-.05-.55-.475-.603-.948-.664l-.003-.44c1.343.081 2.808-.107 4.137 0v.002Zm-1.548 3.664c.796.067 1.522-.05 1.788-.897.196-.625.191-1.624-.403-2.036-.064-.045-.427-.225-.47-.225h-.915v3.158ZM69.086 61.256c-.173.16.608.273.68.298 1.088.38 1.737 1.168 1.45 2.37-.286 1.202-1.605 1.435-2.668 1.5-1.268.077-2.609-.057-3.884 0l.007-.373c.343-.086.866-.041.937-.484l-.028-5.9c-.218-.273-.58-.358-.912-.384l-.003-.439c1.276.057 2.615-.076 3.884 0 .826.05 2.077.215 2.278 1.196.269 1.308-.532 2.021-1.74 2.215l-.001.001Zm-1.77-.063c1.284.167 2.064-.875 1.673-2.084-.088-.274-.448-.759-.757-.759h-.916v2.843Zm0 .537v2.842c0 .151.52.379.681.396 1.646.177 1.966-2.724.392-3.238-.19-.061-1.012-.2-1.073 0ZM90.784 57.845c2.752.225 4.278 2.693 3.328 5.286-1.071 2.92-4.711 2.21-7.15 2.294v-.38c.367-.026.874-.03.944-.477-.119-1.808.17-3.841.006-5.62-.051-.562-.513-.686-1.014-.66v-.443c1.262.076 2.638-.102 3.886 0Zm-1.232.506v5.969c0 .235.392.58.627.636 2.706.633 2.791-4.618 1.49-6.038-.16-.174-.733-.567-.95-.567h-1.168ZM52.127 57.844l3.757 5.116c-.05-1.024.069-2.113.003-3.13-.056-.865-.205-1.477-1.2-1.547l-.002-.44h2.905l-.063.443c-1.005-.054-1.091.663-1.14 1.482-.112 1.865.089 3.843.003 5.72-.271-.037-.677.093-.886-.093-1.38-1.845-2.608-3.822-4.022-5.639-.04-.052.002-.115-.145-.08v4.075c0 .117.15.671.224.787.2.316.642.399.968.516l.008.37h-2.842l.007-.373c.954-.101 1.077-.567 1.133-1.424.072-1.11.094-2.952 0-4.047-.06-.706-.492-1.189-1.196-1.299l-.006-.436h2.495l-.001-.001ZM56.524 65.426l.003-.377c.541-.023.893-.242 1.145-.718l2.383-6.511 1.01-.03 2.47 6.782c.229.299.508.429.878.48l.007.373h-3.6l.005-.373c.214-.085.915-.063.923-.36.003-.091-.526-1.59-.599-1.713-.023-.04-.034-.086-.076-.113-.091-.055-1.896-.062-2.121-.034-.076.01-.13-.004-.187.065-.096.117-.5 1.506-.474 1.672.057.358.716.423 1.005.483l.007.372h-2.78l.001.002Zm2.463-3.032h1.895l-.978-2.717-.917 2.717ZM70.922 65.426l.003-.377c.511-.016.914-.267 1.146-.718l2.381-6.511 1.012-.03 2.268 6.415c.23.511.49.79 1.079.847l.006.374h-3.663l.003-.376c.285-.058.934-.055.951-.413.006-.136-.558-1.719-.635-1.772-.653.005-1.482-.106-2.123-.032-.11.012-.14.005-.212.103-.122.168-.485 1.427-.447 1.634.068.378.692.449 1.007.48l.003.375h-2.78Zm2.463-3.032h1.895l-.916-2.717-.979 2.717Z"/></g><defs><clipPath id="clip0_9011_875"><path fill="#fff" d="M49.531 5.5h44.944v60H49.531z"/></clipPath></defs></svg>