<svg xmlns="http://www.w3.org/2000/svg" width="186" height="71" fill="none" viewBox="0 0 186 71"><path fill="#666" stroke="#107BD4" stroke-width=".009" d="M59.52 15.623c1.245-.188 2.677-.305 3.734.47.657.493.892 1.385.845 2.184.047 1.314-.564 2.723-1.737 3.404-1.034.564-2.278.61-3.429.493-.774-.093-1.55-.516-1.948-1.22-.893-2.043.21-4.931 2.535-5.33Zm-37.24 1.48c.07-.705.705-1.339 1.433-1.315 5.424 0 10.824.023 16.225 0 .587-.047 1.22.211 1.502.728.4.704.047 1.479 0 2.207-.164.986-.117 2.3-1.267 2.676-3.945.118-7.89 0-11.835.047-.375 2.49-.728 4.955-1.103 7.42 0 .094.023.306.023.4 2.888-.024 5.776 0 8.664-.024.799-.047 1.644.634 1.574 1.479-.07.869-.259 1.714-.376 2.583-.094.587-.564 1.127-1.174 1.244-3.217.07-6.48-.07-9.697.07-.517 3.546-1.128 7.092-1.668 10.637-.07.705-.634 1.315-1.338 1.338-1.338.024-2.677.024-4.015 0-.869.024-1.573-.939-1.339-1.76 1.433-9.251 2.912-18.479 4.392-27.73Zm23.856-1.269c1.221-.093 2.466-.023 3.687-.046.751-.047 1.503.54 1.573 1.315 0 .61-.164 1.22-.235 1.831-.986 6.293-1.996 12.586-2.982 18.878-.14 1.01-.399 2.09-.094 3.123.352 1.033 1.925.587 2.301 1.667.235.869-.023 1.785-.094 2.677-.07 1.174-1.409 1.432-2.324 1.69-1.996.376-4.415.094-5.847-1.55-1.033-1.197-1.103-2.887-.892-4.39 1.245-7.983 2.489-15.966 3.757-23.973.07-.587.54-1.127 1.15-1.222Zm46.609 1.269c.07-.705.704-1.315 1.409-1.315h3.569c.892-.024 1.62.939 1.409 1.784-.822 5.213-1.667 10.425-2.49 15.638 1.245-.188 2.654-.423 3.523-1.432a21.85 21.85 0 0 0 3.545-5.541c.305-.775.47-1.902 1.48-2.043 1.338-.047 2.7-.024 4.038 0 .916-.024 1.597 1.01 1.292 1.855-.353 1.244-.94 2.395-1.55 3.498-1.362 2.207-2.864 4.391-4.837 6.128.869 2.607 1.972 5.143 2.935 7.702.282.845.963 1.831.329 2.654-.728.986-2.09.492-3.1.61-1.056-.118-2.582.422-3.17-.775-1.103-2.56-2.019-5.19-3.146-7.748-.657.023-1.338.046-1.996-.024l-.188.376a726.764 726.764 0 0 1-1.103 7.044c-.141.563-.587 1.056-1.198 1.103-1.244.047-2.512.024-3.78.024-.54 0-1.033-.352-1.268-.822-.235-.47-.094-1.01-.023-1.526 1.455-9.064 2.888-18.127 4.32-27.19Zm65.252 2.559c.164-.658.798-1.104 1.456-1.08.939.023 1.902-.024 2.864.023.775.024 1.386.799 1.291 1.55-.14 1.338-.469 2.677-.563 4.015.916 0 1.855-.023 2.771 0 .822 0 1.503.845 1.362 1.643-.118.729-.282 1.433-.4 2.16a1.527 1.527 0 0 1-1.221 1.198c-1.127.07-2.23-.047-3.334.07-.469 3.147-.986 6.293-1.479 9.44-.071.728-.117 1.55.305 2.184.634.774 1.738.492 2.63.587.704.21 1.15.986 1.033 1.69-.117.798-.141 1.597-.329 2.372-.281.868-1.291 1.033-2.066 1.244-2.137.564-4.602.564-6.504-.68-1.761-1.199-2.043-3.523-1.855-5.495.493-3.804 1.268-7.584 1.691-11.412-.658.024-1.456.118-1.949-.47-.564-.586-.282-1.455-.188-2.183.141-.775.117-1.785.963-2.207.681-.259 1.456-.07 2.183-.165.447-1.502.869-3.005 1.339-4.484ZM144.73 27.27c1.48-1.48 3.264-2.7 5.307-3.311.892-.4 2.043.352 2.019 1.338-.164 1.292-.469 2.56-.681 3.827-.094.634-.634 1.175-1.268 1.245-2.301.399-4.297 1.784-5.893 3.428-.399.493-.986.963-1.057 1.644-.493 3.287-1.009 6.574-1.526 9.861-.07.705-.681 1.386-1.409 1.339h-3.569c-.822.047-1.55-.775-1.456-1.597 1.033-6.504 2.067-12.984 3.076-19.489.047-.657.517-1.291 1.198-1.361.869-.047 1.737-.024 2.63-.024.704 0 1.361.634 1.361 1.362 0 1.01-.094 2.043-.117 3.076.564-.352.916-.916 1.385-1.338Zm-87.77-2.982c1.269-.259 2.584-.047 3.852-.118.728-.094 1.502.376 1.62 1.104.094.657-.094 1.291-.165 1.925-.962 6.035-1.925 12.07-2.864 18.104-.07.68-.634 1.361-1.362 1.338-1.268 0-2.536.023-3.827-.023-.799-.095-1.386-1.01-1.174-1.785 1.01-6.27 1.972-12.515 2.982-18.784.047-.681.235-1.48.939-1.761Zm75.983.305c-3.498-.658-7.067-1.127-10.613-.775-3.17.4-6.363 1.831-8.312 4.438-2.7 3.428-3.616 8.03-3.006 12.304.329 2.042 1.221 4.109 2.889 5.377 1.549 1.197 3.639 1.361 5.518 1.056 2.629-.517 4.86-2.207 6.691-4.085.094.798-.094 1.596-.047 2.371.047.728.705 1.409 1.433 1.362h2.395c.704 0 1.291-.657 1.338-1.339 1.01-6.363 2.019-12.703 3.006-19.042.14-.799-.493-1.573-1.292-1.667Zm-6.598 11.06c-.939 1.76-2.254 3.357-3.733 4.718-.845.705-1.926 1.433-3.076 1.198-1.127-.235-1.667-1.409-1.925-2.418-.587-2.63-.047-5.495 1.432-7.772a5.018 5.018 0 0 1 2.935-2.184c1.714-.423 3.522-.212 5.189.258l.094.094c-.211 2.043-.61 4.062-.916 6.105ZM86.852 32.13c-.024-2.348-.658-4.813-2.302-6.575-1.127-1.244-2.817-1.878-4.46-1.855-2.725-.093-5.284 1.245-7.28 3.03-.446.352-.751.868-1.244 1.15 0-.775.07-1.55.047-2.348.023-.728-.658-1.362-1.362-1.362h-2.395c-.751 0-1.362.658-1.409 1.385-1.48 9.393-2.982 18.785-4.461 28.177-.211.869.54 1.76 1.432 1.737 1.315-.023 2.654.094 3.945-.094 1.033-.282 1.01-1.479 1.174-2.348.375-2.066.634-4.132.869-6.222 4.625.892 10.002.282 13.454-3.217 2.817-3.075 4.132-7.325 3.992-11.458Zm-6.575 2.371c-.14 2.16-.916 4.344-2.418 5.917-1.95 1.855-4.908 1.597-7.303.963a1.603 1.603 0 0 1-.14-.281c.375-2.043.563-4.11 1.032-6.129 1.315-2.16 2.912-4.344 5.19-5.541.845-.4 1.995-.305 2.606.47 1.033 1.29 1.127 3.028 1.033 4.601Z"/></svg>